<?xml version="1.0" encoding="UTF-8" standalone="no"?>
<svg width="200px" height="200px" viewBox="0 0 200 200" version="1.1" xmlns="http://www.w3.org/2000/svg" xmlns:xlink="http://www.w3.org/1999/xlink">
    <!-- Generator: Sketch 3.7.2 (28276) - http://www.bohemiancoding.com/sketch -->
    <title>destination-marker</title>
    <desc>Created with Sketch.</desc>
    <defs></defs>
    <g id="Page-1" stroke="none" stroke-width="1" fill="none" fill-rule="evenodd">
        <g id="destination-marker">
            <path d="M126.486696,151.716262 C126.486696,151.716262 137.465057,154.025799 143.356468,154.025799 C151.356711,154.025799 171,151.67201 171,151.67201 C171,151.67201 166.957671,156.998061 166.089333,159.694275 C165.2731,162.228702 165.946288,167.363932 165.946288,167.363932 C165.946288,167.363932 145.228026,169.717721 137.249822,169.717721 C129.728803,169.717721 120.008143,167.363932 120.008143,167.363932 L110.277294,194.103815 L104.122521,194.103815 L117.788032,151.67201 L126.486696,151.716262 Z" id="Combined-Shape" stroke="#000000" stroke-width="5" fill="#000000" opacity="0.3"></path>
            <path d="M106.143413,94.7805019 L108.696833,94.4357852 C108.696833,94.4357852 120.397364,99.8663167 126.2779,99.8663167 C134.263376,99.8663167 153.113751,94.3317334 153.113751,94.3317334 C153.113751,94.3317334 150.791016,106.855151 150.791016,113.194896 C150.791016,119.154225 153.113751,131.228955 153.113751,131.228955 C153.113751,131.228955 133.190388,136.763538 125.22691,136.763538 C117.719773,136.763538 107.260397,131.228955 107.260397,131.228955 L106.143413,115.877344 L106.143413,194.103815 L100,194.103815 L100,94.3317334 L106.143413,94.3317334 L106.143413,94.7805019 Z" id="Combined-Shape" stroke="#FFFFFF" stroke-width="11" fill="#FFFFFF"></path>
            <path d="M107.818743,94.3317334 C107.818743,94.3317334 119.213041,99.8663167 126.608567,99.8663167 C134.498441,99.8663167 153.674944,94.3317334 153.674944,94.3317334 C153.674944,94.3317334 151.546999,107.728328 151.546999,113.472873 C151.546999,120.027402 153.674944,131.228955 153.674944,131.228955 C153.674944,131.228955 133.424926,136.763538 125.556787,136.763538 C118.139526,136.763538 107.818743,131.228955 107.818743,131.228955 L107.818743,94.3317334 Z" id="Rectangle-4" fill="#E36836"></path>
            <rect id="Rectangle-5" fill="#797979" x="100" y="94.3317334" width="6.14341272" height="99.772082"></rect>
        </g>
    </g>
</svg>