<?xml version="1.0" encoding="UTF-8" standalone="no"?>
<svg width="1181px" height="214px" viewBox="0 0 1181 214" version="1.1" xmlns="http://www.w3.org/2000/svg" xmlns:xlink="http://www.w3.org/1999/xlink">
    <!-- Generator: Sketch 3.7.2 (28276) - http://www.bohemiancoding.com/sketch -->
    <title>geowave-logo</title>
    <desc>Created with Sketch.</desc>
    <defs>
        <path d="M6,106 C6,50.771525 50.775755,6 106.009776,6 L117.466797,6 C117.466797,6 149.300781,7.82617188 170.041016,23.2714844 C190.78125,38.7167969 205.466797,64.8808594 205.466797,64.8808594 C205.466797,64.8808594 216.503906,16.5488281 279.410156,16.5488285 C291.044124,16.5488286 364.355469,16.5488286 364.355469,16.5488286 L364.355469,67.8808594 C364.355469,67.8808594 373.25293,51.6035156 426.021484,51.6035156 C470.613281,51.6035156 480.78125,81.1035156 480.78125,81.1035156 C480.78125,81.1035156 485.692383,51.6035156 539.410156,51.6035156 C599.320313,51.6035156 600,62.7148437 600,62.7148437 L587.78125,16.5488281 L644.910156,16.5488281 L667.132812,115.640625 C667.132812,115.640625 687.610996,36.8414029 693.818359,29.5488281 C701.479065,20.5488281 709.467273,18.850384 717.782898,18.9658203 C725.688912,19.0755705 734.928711,19.9658203 742.432617,29.5488281 C749.936523,39.1318359 768.353516,114.640625 768.353516,114.640625 L792.779297,16.5488281 L846.207031,16.5488281 L836.28125,53.9921875 L967.261719,53.9921875 L992.410156,122.121094 L1020.22461,53.9921875 L1128.00153,53.9921875 C1152.8535,53.9921875 1173,74.1364034 1173,98.9835994 L1173,179.365234 C1173,185.768723 1168,192.289062 1156.00977,192.289062 L761.001953,192.289062 C745.119141,192.289062 735.42192,175.158026 730.504477,156.240619 C723.533506,129.423289 717.782898,98.0064926 717.782898,98.0064926 C717.782898,98.0064926 710.139736,129.345273 703.479047,156.556998 C696.818359,183.768723 686.879883,192.289062 674.739349,192.289062 L273.328857,192.289062 C273.328857,192.289062 249.328125,193.454102 233.821289,183.768723 C213.452583,171.046679 205.466797,151.10907 205.466797,151.10907 C205.466797,151.10907 195.596298,177.614349 170.041016,192.289062 C144.485733,206.963776 117.466797,206 117.466797,206 L106.009776,206 C50.775902,206 6,161.225059 6,106 L6,106 Z" id="path-1"></path>
        <mask id="mask-2" maskContentUnits="userSpaceOnUse" maskUnits="objectBoundingBox" x="-5" y="-5" width="1177" height="210.012991">
            <rect x="1" y="1" width="1177" height="210.012991" fill="white"></rect>
            <use xlink:href="#path-1" fill="black"></use>
        </mask>
    </defs>
    <g id="Page-1" stroke="none" stroke-width="1" fill="none" fill-rule="evenodd">
        <g id="geowave-logo">
            <g id="Rectangle-1-Copy">
                <use fill="#FFFFFF" fill-rule="evenodd" xlink:href="#path-1"></use>
                <use stroke="#0094C4" mask="url(#mask-2)" stroke-width="10" xlink:href="#path-1"></use>
            </g>
            <polyline id="Fill-3" fill="#CA482D" points="99.31 170.842 99.313 170.842 90.992 178.597 77.356 176.061 72 165.74 72.046 165.74 72.02 165.735 80.313 158 93.966 160.554 99.31 170.842"></polyline>
            <polyline id="Fill-4" fill="#CA482D" points="147.501 151.101 147.499 151.102 159.522 152.894 169.017 143.758 166.504 132.785 166.465 132.809 166.484 132.792 154.498 131 145 140.16 147.501 151.101"></polyline>
            <polyline id="Fill-5" fill="#CA482D" points="124.01 131.277 124.013 131.277 112.441 144.691 94.461 141.272 88 124.39 88.062 124.387 88.027 124.381 99.559 111 117.562 114.449 124.01 131.277"></polyline>
            <polyline id="Fill-6" fill="#CA482D" points="45.748 148.687 45.75 148.688 40.73 155.722 30.871 151.905 26 141.021 26.033 141.025 26.014 141.018 31.016 134 40.889 137.837 45.748 148.687"></polyline>
            <polyline id="Fill-7" fill="#CA482D" points="180.7 103.608 180.699 103.61 188.953 106.17 194.49 97.165 191.778 85.552 191.755 85.576 191.765 85.558 183.536 83 178 92.03 180.7 103.608"></polyline>
            <polyline id="Fill-8" fill="#E46835" points="120.654 130.95 120.657 130.951 109.843 143.487 93.039 140.292 87 124.514 87.058 124.511 87.025 124.505 97.803 112 114.628 115.224 120.654 130.95"></polyline>
            <polyline id="Fill-9" fill="#E46835" points="97.524 170.002 97.527 170.003 89.75 177.25 77.006 174.88 72 165.234 72.044 165.234 72.019 165.229 79.769 158 92.53 160.387 97.524 170.002"></polyline>
            <polyline id="Fill-10" fill="#E46835" points="148.337 149.785 148.335 149.786 159.571 151.461 168.446 142.922 166.096 132.667 166.061 132.69 166.078 132.673 154.876 131 146 139.56 148.337 149.785"></polyline>
            <polyline id="Fill-11" fill="#E46835" points="44.455 147.726 44.457 147.727 39.765 154.301 30.552 150.734 26 140.561 26.03 140.566 26.013 140.559 30.687 134 39.914 137.586 44.455 147.726"></polyline>
            <polyline id="Fill-12" fill="#E46835" points="181.523 102.26 181.522 102.261 189.236 104.654 194.411 96.238 191.877 85.385 191.855 85.407 191.865 85.391 184.174 83 179 91.439 181.523 102.26"></polyline>
            <polyline id="Fill-13" fill="#10669A" points="62.183 60.532 62.185 60.53 50.944 59 41 68.93 42.28 80.439 42.319 80.412 42.3 80.432 53.506 81.963 63.454 72.007 62.183 60.532"></polyline>
            <polyline id="Fill-14" fill="#10669A" points="69.304 177.574 69.306 177.574 67.019 182.598 56.886 180.33 49 173.015 49.031 173.017 49.011 173.012 51.287 168 61.44 170.282 69.304 177.574"></polyline>
            <polyline id="Fill-15" fill="#10669A" points="179.002 139.526 179 139.528 183.862 142.142 190.555 134.203 192.404 123.607 192.381 123.627 192.394 123.611 187.548 121 180.848 128.962 179.002 139.526"></polyline>
            <polyline id="Fill-16" fill="#10669A" points="127.922 20.231 127.924 20.23 116.266 17 105 21.158 105.371 28.573 105.414 28.564 105.392 28.572 117.014 31.796 128.286 27.623 127.922 20.231"></polyline>
            <polyline id="Fill-17" fill="#3594C6" points="67.976 176.947 67.978 176.948 65.841 181.643 56.37 179.523 49 172.687 49.029 172.689 49.011 172.684 51.138 168 60.627 170.133 67.976 176.947"></polyline>
            <polyline id="Fill-18" fill="#3594C6" points="180.002 138.315 180 138.316 184.544 140.759 190.799 133.339 192.527 123.437 192.505 123.456 192.517 123.441 187.989 121 181.727 128.441 180.002 138.315"></polyline>
            <polyline id="Fill-19" fill="#3594C6" points="60.796 60.432 60.798 60.431 50.293 59 41 68.281 42.196 79.037 42.232 79.012 42.214 79.03 52.687 80.462 61.985 71.157 60.796 60.432"></polyline>
            <polyline id="Fill-20" fill="#3594C6" points="126.422 20.02 126.424 20.019 115.529 17 105 20.886 105.346 27.816 105.386 27.808 105.365 27.816 116.227 30.828 126.762 26.928 126.422 20.02"></polyline>
            <polyline id="Fill-21" fill="#6C9341" points="136.15 161.653 136.153 161.653 126.181 171.952 110.627 170.282 105 158.28 105.054 158.275 105.024 158.272 114.962 148 130.535 149.691 136.15 161.653"></polyline>
            <polyline id="Fill-22" fill="#6C9341" points="147.01 181.882 147.012 181.882 139.02 188.201 127.031 188.63 123 182.727 123.042 182.72 123.019 182.721 130.984 176.42 142.988 176 147.01 181.882"></polyline>
            <polyline id="Fill-23" fill="#6C9341" points="175.266 165.941 175.268 165.94 166.286 174.452 154.668 176.013 152 169.048 152.042 169.036 152.019 169.039 160.972 160.551 172.602 159 175.266 165.941"></polyline>
            <polyline id="Fill-24" fill="#6C9341" points="115.649 191.307 115.652 191.308 105.089 194.152 91.281 191.427 88 185.838 88.049 185.843 88.022 185.838 98.55 183 112.373 185.736 115.649 191.307"></polyline>
            <polyline id="Fill-25" fill="#6C9341" points="97.538 45.163 97.541 45.16 83.369 43 72 53.744 74.785 66.703 74.831 66.674 74.809 66.695 88.937 68.856 100.309 58.083 97.538 45.163"></polyline>
            <polyline id="Fill-26" fill="#6C9341" points="92.987 22.193 92.989 22.191 82.803 22 73 28.916 73.365 36.054 73.402 36.034 73.383 36.048 83.538 36.242 93.347 29.31 92.987 22.193"></polyline>
            <polyline id="Fill-27" fill="#6C9341" points="32.79 109.562 32.791 109.56 24.537 107 19 116.005 21.712 127.618 21.735 127.594 21.724 127.612 29.954 130.17 35.49 121.139 32.79 109.562"></polyline>
            <polyline id="Fill-28" fill="#6C9341" points="62.469 33.002 62.471 33 52.341 37.129 43 47.657 43.771 54.092 43.807 54.058 43.789 54.078 53.887 49.964 63.233 39.42 62.469 33.002"></polyline>
            <polyline id="Fill-29" fill="#6C9341" points="79.894 139.039 79.897 139.039 71.521 148.542 57.593 145.783 52 133.485 52.047 133.485 52.02 133.479 60.367 124 74.313 126.781 79.894 139.039"></polyline>
            <polyline id="Fill-30" fill="#6C9341" points="65.833 93.495 65.835 93.493 53.416 91 44 101.626 46.991 114.801 47.03 114.773 47.011 114.794 59.393 117.286 68.81 106.631 65.833 93.495"></polyline>
            <polyline id="Fill-31" fill="#6C9341" points="104.57 76.676 104.573 76.673 87.242 73 75 86.606 80.075 103.955 80.126 103.919 80.102 103.946 97.381 107.616 109.624 93.973 104.57 76.676"></polyline>
            <polyline id="Fill-32" fill="#6C9341" points="34.403 72.616 34.404 72.614 29.542 70 22.85 77.939 21 88.535 21.024 88.515 21.011 88.531 25.857 91.142 32.557 83.18 34.403 72.616"></polyline>
            <polyline id="Fill-33" fill="#6C9341" points="139.002 33.119 139 33.119 141.066 28 151.288 29.824 159.486 36.787 159.455 36.786 159.475 36.79 157.42 41.897 147.177 40.061 139.002 33.119"></polyline>
            <polyline id="Fill-34" fill="#6C9341" points="137.384 121.042 137.382 121.044 151.498 123.878 162.2 111.799 158.8 96.825 158.757 96.857 158.777 96.833 144.704 94 134 106.111 137.384 121.042"></polyline>
            <polyline id="Fill-35" fill="#80AD42" points="102.636 76.435 102.638 76.433 86.441 73 75 85.716 79.743 101.93 79.791 101.897 79.769 101.921 95.918 105.352 107.358 92.601 102.636 76.435"></polyline>
            <polyline id="Fill-36" fill="#80AD42" points="94.867 45.021 94.87 45.019 81.625 43 71 53.041 73.603 65.152 73.646 65.125 73.625 65.145 86.829 67.164 97.458 57.097 94.867 45.021"></polyline>
            <polyline id="Fill-37" fill="#80AD42" points="90.68 22.18 90.682 22.179 81.161 22 72 28.463 72.34 35.134 72.375 35.116 72.358 35.128 81.848 35.31 91.015 28.831 90.68 22.18"></polyline>
            <polyline id="Fill-38" fill="#80AD42" points="134.112 160.76 134.115 160.76 124.795 170.385 110.259 168.824 105 157.607 105.05 157.603 105.022 157.6 114.31 148 128.864 149.58 134.112 160.76"></polyline>
            <polyline id="Fill-39" fill="#80AD42" points="144.439 181.498 144.441 181.498 136.971 187.403 125.767 187.804 122 182.288 122.039 182.281 122.017 182.282 129.462 176.393 140.679 176 144.439 181.498"></polyline>
            <polyline id="Fill-40" fill="#80AD42" points="113.84 190.764 113.843 190.765 103.971 193.423 91.067 190.876 88 185.653 88.046 185.658 88.021 185.653 97.86 183 110.778 185.557 113.84 190.764"></polyline>
            <polyline id="Fill-41" fill="#80AD42" points="78.07 139.055 78.073 139.056 70.244 147.936 57.228 145.358 52 133.865 52.045 133.864 52.02 133.859 59.82 125 72.854 127.599 78.07 139.055"></polyline>
            <polyline id="Fill-42" fill="#80AD42" points="60.194 33.002 60.196 33 50.729 36.86 42 46.699 42.72 52.713 42.754 52.681 42.737 52.7 52.174 48.855 60.909 39.001 60.194 33.002"></polyline>
            <polyline id="Fill-43" fill="#80AD42" points="32.525 72.445 32.527 72.443 27.983 70 21.728 77.42 20 87.323 20.022 87.304 20.01 87.318 24.538 89.759 30.8 82.318 32.525 72.445"></polyline>
            <polyline id="Fill-44" fill="#80AD42" points="140.002 31.784 140 31.784 141.931 27 151.485 28.704 159.146 35.212 159.117 35.211 159.136 35.214 157.215 39.987 147.643 38.271 140.002 31.784"></polyline>
            <polyline id="Fill-45" fill="#80AD42" points="31.887 109.395 31.888 109.393 24.175 107 19 115.416 21.534 126.269 21.556 126.247 21.546 126.263 29.237 128.654 34.411 120.215 31.887 109.395"></polyline>
            <polyline id="Fill-46" fill="#80AD42" points="173.744 165.487 173.746 165.486 165.352 173.441 154.493 174.899 152 168.391 152.039 168.379 152.018 168.382 160.384 160.45 171.254 159 173.744 165.487"></polyline>
            <polyline id="Fill-47" fill="#80AD42" points="64.405 94.332 64.407 94.33 52.8 92 44 101.931 46.796 114.244 46.831 114.218 46.814 114.237 58.386 116.567 67.188 106.608 64.405 94.332"></polyline>
            <polyline id="Fill-48" fill="#80AD42" points="139.163 119.272 139.161 119.274 152.354 121.923 162.356 110.635 159.178 96.64 159.138 96.67 159.157 96.648 146.004 94 136 105.319 139.163 119.272"></polyline>
            <path d="M1077.52402,112.970348 C1077.66344,109.302783 1077.9091,105.881348 1078.26098,102.706043 C1078.61287,99.5307391 1080.05803,96.5328261 1082.59426,93.7123043 C1084.28287,91.8763043 1086.14852,90.4283478 1088.19344,89.3706522 C1090.23393,88.3129565 1092.31205,87.5723478 1094.42336,87.1488261 C1096.53689,86.7253043 1098.57959,86.4791739 1100.55148,86.4082174 C1102.52115,86.3372609 1104.35361,86.3017826 1106.04221,86.3017826 C1109.56328,86.3017826 1113.19057,86.5501304 1116.92189,87.0446087 C1120.65541,87.5368696 1124.07025,88.9848261 1127.16861,91.3818261 C1129.00107,92.7943043 1130.65426,94.77 1132.13262,97.308913 C1133.61098,99.8478261 1134.35016,102.881217 1134.35016,106.411304 C1134.35016,107.961261 1134.03369,109.442478 1133.39852,110.857174 C1132.76557,112.265217 1131.25402,112.970348 1128.85721,112.970348 L1077.52402,112.970348 L1077.52402,112.970348 Z M1156.32197,179.857957 L1156.32197,160.808348 L1101.60713,160.808348 C1099.35418,160.808348 1097.06582,160.668652 1094.73984,160.384826 C1092.41607,160.103217 1090.19852,159.502304 1088.085,158.586522 C1085.97369,157.668522 1084.14344,156.327 1082.59426,154.561957 C1081.04287,152.801348 1079.84557,150.435391 1079.00238,147.472957 C1078.57746,145.781087 1078.22557,143.38187 1077.94451,140.275304 C1077.66344,137.170957 1077.52402,134.421391 1077.52402,132.019957 L1142.58959,132.019957 C1144.84475,132.019957 1146.99148,131.738348 1149.03418,131.17513 C1151.07467,130.611913 1152.94254,129.481043 1154.63336,127.789174 C1157.02574,125.387739 1158.50631,122.673652 1159.06844,119.638043 C1159.63057,116.60687 1159.91164,113.675478 1159.91164,110.857174 C1159.91164,107.327087 1159.70361,103.834696 1159.27869,100.38 C1158.8582,96.9208696 1158.04598,93.6036522 1156.8509,90.4283478 C1155.65361,87.2552609 1154.03361,84.326087 1151.9909,81.6452609 C1149.95041,78.9644348 1147.30795,76.5674348 1144.06795,74.4498261 C1138.85828,71.2035652 1133.04664,69.1923913 1126.63967,68.4163043 C1120.2327,67.6402174 1113.7173,67.2521739 1107.09787,67.2521739 C1104.42221,67.2521739 1101.32385,67.320913 1097.805,67.4650435 C1094.28393,67.6047391 1090.62123,67.9927826 1086.81689,68.6269565 C1083.01475,69.2611304 1079.24803,70.2877826 1075.51672,71.6980435 C1071.78541,73.1083043 1068.36836,75.1549565 1065.27,77.8357826 C1062.17385,80.5166087 1059.74164,83.4790435 1057.98,86.7253043 C1056.22279,89.9715652 1054.88607,93.534913 1053.96984,97.4131304 C1053.05361,101.293565 1052.48926,105.528783 1052.2768,110.114348 C1052.06877,114.70213 1051.96033,119.602565 1051.96033,124.826739 C1051.96033,132.303783 1052.38525,139.64113 1053.22844,146.838783 C1054.07385,154.036435 1056.3268,160.311652 1059.98951,165.675522 C1062.24246,168.921783 1064.77869,171.498391 1067.59598,173.40313 C1070.41107,175.30787 1073.29918,176.753609 1076.2559,177.740348 C1079.21262,178.727087 1082.24238,179.328 1085.34074,179.54087 C1088.4391,179.751522 1091.39582,179.857957 1094.21311,179.857957 L1156.32197,179.857957 L1156.32197,179.857957 Z M957.320902,67.6734783 L931.757213,67.6734783 L974.432705,171.181304 C975.417541,173.720217 976.685656,175.660435 978.234836,176.999739 C979.784016,178.341261 981.368607,179.328 982.988607,179.962174 C984.606393,180.596348 986.190984,180.948913 987.740164,181.022087 C989.291557,181.093043 990.628279,181.126304 991.752541,181.126304 C993.301721,181.126304 994.886311,181.057565 996.506311,180.915652 C998.128525,180.775957 999.675492,180.387913 1001.15385,179.751522 C1002.63443,179.117348 1004.04197,178.130609 1005.37869,176.78687 C1006.71762,175.447565 1007.87951,173.578304 1008.86434,171.181304 L1051.53984,67.6734783 L1025.97615,67.6734783 L994.711475,150.86113 C994.43041,151.705957 994.007705,152.657217 993.445574,153.71713 C992.88123,154.774826 992.316885,155.304783 991.752541,155.304783 C991.19041,155.304783 990.628279,154.774826 990.063934,153.71713 C989.49959,152.657217 989.076885,151.705957 988.79582,150.86113 L957.320902,67.6734783 L957.320902,67.6734783 Z M903.659508,129.057522 L903.659508,154.881261 C903.659508,155.728304 903.588689,156.53987 903.449262,157.315957 C903.307623,158.089826 902.816311,158.832652 901.970902,159.537783 C901.125492,160.242913 900.173852,160.630957 899.118197,160.70413 C898.062541,160.77287 897.181721,160.808348 896.477951,160.808348 L862.044098,160.808348 C860.494918,160.808348 858.978934,160.455783 857.502787,159.750652 C856.022213,159.043304 854.860328,158.267217 854.017131,157.420174 C852.467951,155.868 851.516311,153.823565 851.164426,151.282435 C850.812541,148.743522 850.635492,146.625913 850.635492,144.934043 C850.635492,140.840739 850.987377,137.949261 851.691148,136.255174 C852.397131,134.561087 852.959262,133.432435 853.381967,132.869217 C854.789508,131.033217 856.444918,129.940043 858.345984,129.587478 C860.247049,129.232696 861.621393,129.057522 862.46459,129.057522 L903.659508,129.057522 L903.659508,129.057522 Z M833.31123,67.6734783 L833.31123,86.7253043 L888.44877,86.7253043 C890.422869,86.7253043 892.49877,87.006913 894.680902,87.5723478 C896.865246,88.1377826 898.801721,89.477087 900.490328,91.5946957 C901.900082,93.2865652 902.780902,95.0516087 903.132787,96.8853913 C903.484672,98.7191739 903.659508,100.484217 903.659508,102.176087 L903.659508,110.007913 L855.072787,110.007913 C852.116066,110.007913 848.838443,110.325 845.24877,110.961391 C841.659098,111.595565 838.10041,113.467043 834.579344,116.571391 C830.354508,120.238957 827.714262,124.469739 826.656393,129.270391 C825.602951,134.068826 825.074016,138.936 825.074016,143.876348 C825.074016,145.989522 825.144836,148.390957 825.284262,151.069565 C825.423689,153.752609 825.813197,156.502174 826.448361,159.324913 C827.081311,162.147652 828.066148,164.866174 829.405082,167.476043 C830.741803,170.085913 832.538852,172.378696 834.791803,174.354391 C838.02959,177.17713 841.446639,178.800261 845.036311,179.223783 C848.63041,179.645087 851.972213,179.857957 855.072787,179.857957 L908.519508,179.857957 C911.195164,179.857957 913.941639,179.609609 916.758934,179.117348 C919.57623,178.62287 921.968607,177.387783 923.940492,175.412087 C925.912377,173.438609 927.147295,171.037174 927.638607,168.214435 C928.132131,165.391696 928.38,162.994696 928.38,161.021217 L928.38,102.812478 C928.38,96.4618696 927.603197,91.0647391 926.054016,86.6188696 C924.504836,82.1752174 922.532951,78.7515652 920.138361,76.3545652 C917.602131,73.6715217 914.293525,71.5561304 910.210328,70.0039565 C906.124918,68.4517826 901.687623,67.6734783 896.900656,67.6734783 L833.31123,67.6734783 L833.31123,67.6734783 Z M670.009918,146.625913 C669.728852,147.333261 669.306148,148.10713 668.741803,148.956391 C668.177459,149.801217 667.544508,150.224739 666.840738,150.224739 C665.716475,150.224739 664.975082,149.661522 664.623197,148.530652 C664.271311,147.402 663.954836,146.486217 663.671557,145.781087 L634.307951,31.6918696 L606,31.6918696 L641.491721,160.808348 C643.744672,168.992739 646.843033,174.496304 650.78459,177.316826 C654.730574,180.139565 659.656967,181.549826 665.574836,181.549826 C669.939098,181.549826 673.495574,180.948913 676.242049,179.751522 C678.988525,178.551913 681.206066,176.999739 682.896885,175.095 C684.585492,173.190261 685.889016,171.145826 686.805246,168.957261 C687.719262,166.770913 688.458443,164.617826 689.022787,162.500217 L715.219426,66.618 C715.500492,65.9128696 715.816967,65.0636087 716.171066,64.0768696 C716.522951,63.0901304 717.120492,62.5934348 717.965902,62.5934348 C719.234016,62.5934348 720.218852,63.9371739 720.922623,66.618 L746.906803,162.500217 C747.610574,165.03913 748.491393,167.440565 749.547049,169.69787 C750.604918,171.955174 752.012459,173.96413 753.774098,175.729174 C755.533525,177.494217 757.751066,178.904478 760.428934,179.962174 C763.10459,181.022087 766.484016,181.549826 770.569426,181.549826 C774.933689,181.549826 778.490164,180.915652 781.236639,179.645087 C783.983115,178.374522 786.236066,176.753609 787.997705,174.777913 C789.757131,172.802217 791.093852,170.580391 792.010082,168.110217 C792.926311,165.640043 793.736311,163.207565 794.440082,160.808348 L830.142049,31.6918696 L801.834098,31.6918696 L772.470492,145.781087 C772.045574,147.612652 771.48123,148.812261 770.779672,149.377696 C770.075902,149.94313 769.511557,150.224739 769.088852,150.224739 C768.385082,150.224739 767.752131,149.801217 767.187787,148.956391 C766.623443,148.10713 766.202951,147.333261 765.919672,146.625913 L738.457131,45.2401304 C738.034426,43.5438261 737.401475,41.8164783 736.556066,40.0536522 C735.710656,38.2908261 734.513361,36.6676957 732.96418,35.1842609 C731.415,33.7030435 729.443115,32.4701739 727.048525,31.479 C724.656148,30.4922609 721.626393,30 717.965902,30 C714.022131,30 710.817541,30.5277391 708.352131,31.5876522 C705.886721,32.6453478 703.917049,33.9491739 702.436475,35.5013478 C700.960328,37.0557391 699.867049,38.7121304 699.163279,40.4771739 C698.459508,42.24 697.895164,43.8276522 697.474672,45.2401304 L670.009918,146.625913 L670.009918,146.625913 Z" id="Fill-1" fill="#E46835"></path>
            <path d="M511.125492,124.287826 C511.125492,122.451826 511.158689,120.263261 511.229508,117.724348 C511.300328,115.183217 511.545984,112.540087 511.970902,109.786087 C512.391393,107.036522 513.095164,104.320217 514.08,101.639391 C515.067049,98.9563478 516.405984,96.6303043 518.09459,94.6546087 C519.78541,92.6766957 521.792705,91.0890435 524.116475,89.8916522 C526.438033,88.6920435 528.799426,87.7740435 531.191803,87.1398696 C533.588607,86.5056957 536.018607,86.1176522 538.481803,85.9757391 C540.947213,85.8338261 543.164754,85.765087 545.136639,85.765087 C547.391803,85.765087 549.713361,85.8338261 552.105738,85.9757391 C554.502541,86.1176522 556.859508,86.5056957 559.185492,87.1398696 C561.509262,87.7740435 563.762213,88.6920435 565.944344,89.8916522 C568.128689,91.0890435 570.13377,92.6766957 571.96623,94.6546087 C573.935902,96.77 575.416475,99.1337391 576.401311,101.743609 C577.388361,104.353478 578.089918,106.998826 578.514836,109.68187 C578.937541,112.362696 579.15,114.974783 579.15,117.513696 L579.15,124.287826 C579.15,129.223739 578.831311,134.232826 578.198361,139.31287 C577.56541,144.392913 575.416475,148.980696 571.75377,153.074 C568.093279,157.167304 563.903852,159.741696 559.185492,160.799391 C554.467131,161.857087 549.78418,162.384826 545.136639,162.384826 C540.628525,162.384826 535.945574,161.857087 531.087787,160.799391 C526.23,159.741696 521.967541,157.167304 518.307049,153.074 C514.785984,148.980696 512.707869,144.324174 512.074918,139.104435 C511.441967,133.882478 511.125492,128.944348 511.125492,124.287826 L511.125492,124.287826 Z M545.136639,66.7132609 C541.757213,66.7132609 538.094508,66.7842174 534.150738,66.9261304 C530.206967,67.0680435 526.19459,67.5248261 522.111393,68.300913 C518.025984,69.077 514.08,70.2766087 510.277869,71.8997391 C506.475738,73.5228696 503.025492,75.7446957 499.927131,78.5674348 C496.687131,81.5298696 494.117705,85.0222609 492.216639,89.0446087 C490.315574,93.0669565 488.872623,97.1580435 487.887787,101.322304 C486.900738,105.484348 486.267787,109.610913 485.986721,113.704217 C485.703443,117.795304 485.561803,121.39413 485.561803,124.498478 C485.561803,127.319 485.703443,130.671696 485.986721,134.55213 C486.267787,138.430348 486.863115,142.454913 487.779344,146.616957 C488.695574,150.779 490.105328,154.836826 492.006393,158.788217 C493.907459,162.737391 496.547705,166.265261 499.927131,169.371826 C503.025492,172.192348 506.475738,174.416391 510.277869,176.037304 C514.08,177.660435 518.025984,178.860043 522.111393,179.63613 C526.19459,180.414435 530.206967,180.904478 534.150738,181.117348 C538.094508,181.330217 541.757213,181.434435 545.136639,181.434435 C548.376639,181.434435 551.966311,181.330217 555.910082,181.117348 C559.853852,180.904478 563.903852,180.414435 568.057869,179.63613 C572.211885,178.860043 576.226475,177.660435 580.099426,176.037304 C583.972377,174.416391 587.387213,172.192348 590.343934,169.371826 C594.429344,165.420435 597.84418,159.810435 600.592869,152.544043 C603.337131,145.275435 604.711475,135.647522 604.711475,123.651435 C604.711475,120.689 604.569836,117.232087 604.286557,113.278478 C604.005492,109.329304 603.372541,105.306957 602.385492,101.213652 C601.400656,97.1225652 599.957705,93.0669565 598.056639,89.0446087 C596.155574,85.0222609 593.583934,81.5298696 590.343934,78.5674348 C587.245574,75.7446957 583.795328,73.5228696 579.993197,71.8997391 C576.188852,70.2766087 572.247295,69.077 568.161885,68.300913 C564.078689,67.5248261 560.066311,67.0680435 556.122541,66.9261304 C552.17877,66.7842174 548.516066,66.7132609 545.136639,66.7132609 L545.136639,66.7132609 Z M392.186066,113.278478 C392.325492,109.610913 392.573361,106.189478 392.925246,103.014174 C393.277131,99.8388696 394.720082,96.8409565 397.256311,94.0204348 C398.944918,92.1844348 400.812787,90.7364783 402.855492,89.6787826 C404.895984,88.621087 406.974098,87.8804783 409.08541,87.4569565 C411.198934,87.0334348 413.241639,86.7873043 415.213525,86.7163478 C417.18541,86.6453913 419.015656,86.609913 420.704262,86.609913 C424.225328,86.609913 427.854836,86.8582609 431.583934,87.3527391 C435.317459,87.845 438.732295,89.2929565 441.830656,91.6899565 C443.663115,93.1024348 445.316311,95.0781304 446.794672,97.6170435 C448.275246,100.155957 449.012213,103.189348 449.012213,106.719435 C449.012213,108.269391 448.695738,109.750609 448.062787,111.165304 C447.427623,112.573348 445.916066,113.278478 443.521475,113.278478 L392.186066,113.278478 L392.186066,113.278478 Z M470.984016,180.166087 L470.984016,161.116478 L416.26918,161.116478 C414.01623,161.116478 411.727869,160.976783 409.401885,160.692957 C407.080328,160.411348 404.860574,159.810435 402.747049,158.894652 C400.635738,157.976652 398.805492,156.63513 397.256311,154.870087 C395.707131,153.109478 394.509836,150.743522 393.666639,147.781087 C393.241721,146.089217 392.889836,143.69 392.606557,140.583435 C392.325492,137.479087 392.186066,134.729522 392.186066,132.328087 L457.251639,132.328087 C459.506803,132.328087 461.653525,132.046478 463.69623,131.483261 C465.736721,130.920043 467.60459,129.789174 469.29541,128.097304 C471.687787,125.69587 473.168361,122.981783 473.732705,119.946174 C474.292623,116.915 474.575902,113.983609 474.575902,111.165304 C474.575902,107.635217 474.365656,104.142826 473.940738,100.68813 C473.520246,97.229 472.710246,93.9117826 471.512951,90.7364783 C470.315656,87.5633913 468.695656,84.6342174 466.652951,81.9533913 C464.612459,79.2725652 461.97,76.8755652 458.732213,74.7579565 C453.520328,71.5116957 447.710902,69.5005217 441.301721,68.7244348 C434.894754,67.9483478 428.379344,67.5603043 421.762131,67.5603043 C419.086475,67.5603043 415.988115,67.6290435 412.467049,67.7731739 C408.945984,67.9128696 405.283279,68.300913 401.481148,68.935087 C397.676803,69.5692609 393.910082,70.595913 390.17877,72.0061739 C386.447459,73.4164348 383.03041,75.463087 379.932049,78.143913 C376.835902,80.8247391 374.405902,83.7871739 372.644262,87.0334348 C370.884836,90.2796957 369.548115,93.8430435 368.631885,97.7212609 C367.715656,101.601696 367.151311,105.836913 366.941066,110.422478 C366.73082,115.010261 366.622377,119.910696 366.622377,125.13487 C366.622377,132.611913 367.047295,139.949261 367.890492,147.146913 C368.735902,154.344565 370.988852,160.619783 374.65377,165.983652 C376.904508,169.229913 379.440738,171.806522 382.258033,173.711261 C385.075328,175.616 387.96123,177.061739 390.917951,178.048478 C393.874672,179.035217 396.904426,179.63613 400.002787,179.849 C403.101148,180.059652 406.057869,180.166087 408.875164,180.166087 L470.984016,180.166087 L470.984016,180.166087 Z M324.794508,107.564261 L324.794508,147.993957 C324.794508,149.120391 324.690492,150.390957 324.478033,151.803435 C324.267787,153.213696 323.597213,154.484261 322.472951,155.612913 C321.344262,156.741565 320.14918,157.411217 318.881066,157.624087 C317.612951,157.834739 316.347049,157.941174 315.078934,157.941174 L278.952049,157.941174 C273.038607,157.941174 267.616475,156.918957 262.685656,154.870087 C257.759262,152.825652 253.742459,148.699087 250.644098,142.488174 C250.079754,141.361739 249.446803,139.845043 248.743033,137.938087 C248.039262,136.033348 247.406311,133.598652 246.841967,130.636217 C246.277623,127.673783 245.786311,124.181391 245.361393,120.159043 C244.940902,116.136696 244.728443,111.444696 244.728443,106.085261 C244.728443,100.721391 244.940902,96.0648696 245.361393,92.1134783 C245.786311,88.162087 246.277623,84.773913 246.841967,81.9533913 C247.406311,79.1328696 248.039262,76.766913 248.743033,74.8621739 C249.446803,72.9574348 250.152787,71.4407391 250.856557,70.312087 C253.673852,65.0901304 257.827869,61.1054783 263.318607,58.3536957 C268.811557,55.5996957 275.572623,54.224913 283.59959,54.224913 L349.302541,54.224913 L349.302541,32 L275.782869,32 C261.278115,32 249.375984,35.0356087 240.083115,41.1023913 C234.587951,44.6302609 230.259098,48.8987391 227.089918,53.9078261 C223.920738,58.916913 221.526148,64.3495217 219.906148,70.2056522 C218.288361,76.0617826 217.232705,82.1307826 216.736967,88.4104348 C216.243443,94.690087 216,100.861087 216,106.930087 C216,112.152043 216.172623,117.584652 216.526721,123.227913 C216.878607,128.871174 217.688607,134.412435 218.956721,139.845043 C220.224836,145.275435 222.159098,150.461913 224.763934,155.402261 C227.373197,160.340391 230.927459,164.713087 235.433361,168.522565 C238.815,171.345304 243.320902,173.99287 248.955492,176.460826 C254.587869,178.931 261.561393,180.166087 269.869426,180.166087 L332.823689,180.166087 C334.935,180.166087 337.365,179.813522 340.111475,179.108391 C342.855738,178.401043 345.217131,177.272391 347.189016,175.720217 C348.596557,174.591565 349.862459,172.828739 350.991148,170.427304 C352.11541,168.030304 352.679754,164.925957 352.679754,161.116478 L352.679754,107.564261 L324.794508,107.564261 Z" id="Fill-2" fill="#80AD42"></path>
        </g>
    </g>
</svg>