<?xml version="1.0" encoding="UTF-8" standalone="no"?>
<svg width="200px" height="200px" viewBox="0 0 200 200" version="1.1" xmlns="http://www.w3.org/2000/svg" xmlns:xlink="http://www.w3.org/1999/xlink">
    <!-- Generator: Sketch 3.7.2 (28276) - http://www.bohemiancoding.com/sketch -->
    <title>origin-marker</title>
    <desc>Created with Sketch.</desc>
    <defs>
        <path d="M101.697572,183.854369 C101.697572,183.854369 158.832444,112.689054 158.83244,82.9704859 C158.832437,53.2519174 125.950245,31 100.255391,31 C75.5219927,31 44.7183147,53.3108696 43.8660666,82.9704859 C43.0138186,112.630102 101.697572,183.854369 101.697572,183.854369 Z" id="path-1"></path>
        <mask id="mask-2" maskContentUnits="userSpaceOnUse" maskUnits="objectBoundingBox" x="-10" y="-10" width="134.975567" height="172.854369">
            <rect x="33.856873" y="21" width="134.975567" height="172.854369" fill="white"></rect>
            <use xlink:href="#path-1" fill="black"></use>
        </mask>
    </defs>
    <g id="Page-1" stroke="none" stroke-width="1" fill="none" fill-rule="evenodd">
        <g id="origin-marker">
            <path d="M153.495264,166.556554 C138.220376,180.082702 121.697572,191.854369 121.697572,191.854369 C121.697572,191.854369 109.471654,183.36689 96.261607,172.526712 C83.9574123,174.221476 70.8143508,175.726257 58.4894572,176.370015 C51.2977973,174.573422 52.6101281,173.320938 52.6101281,169.273973 C56.2565543,161.279736 65.2532008,140.558101 65.2532008,140.558101 C65.2532008,140.558101 65.3074504,140.422179 65.4316579,140.209185 C64.3440878,137.976921 63.7765325,135.93225 63.8660666,134.149973 C64.7183147,117.185021 95.5219927,104.423466 120.255391,104.423466 C145.950245,104.423466 178.832437,117.151301 178.83244,134.149973 C178.832442,140.634744 170.517475,150.569656 160.231644,160.378598 C165.007224,162.85879 168.320102,165.584048 166.749875,166.60526 L162.623754,170.53764 C160.313005,170.830133 158.076586,168.158359 153.495264,166.556554 Z M76.1909858,154.314614 C78.1095168,156.318297 80.1751627,158.348236 82.3302198,160.372941 C76.5765351,160.670274 72.9883173,160.830638 72.9883173,160.830638 L76.1909858,154.314614 Z" id="Combined-Shape" stroke="#000000" stroke-width="10" fill="#000000" opacity="0.3"></path>
            <g id="Path-1">
                <use fill="#80AC42" fill-rule="evenodd" xlink:href="#path-1"></use>
                <use stroke="#FFFFFF" mask="url(#mask-2)" stroke-width="20" xlink:href="#path-1"></use>
            </g>
            <ellipse id="Oval-3" stroke="#FFFFFF" stroke-width="5" fill="#D9D9D9" cx="101.722222" cy="85.9320388" rx="43.725324" ry="43.7154515"></ellipse>
            <path d="M65.4363063,128.993079 C57.3706958,125.252731 55.2532008,130.558101 55.2532008,130.558101 C55.2532008,130.558101 46.2565543,151.279736 42.6101281,159.273973 C42.6101281,163.320938 41.2977973,164.573422 48.4894572,166.370015 C82.8856146,164.573422 123.654068,156.070761 134.77746,155.44776 C145.900852,154.824759 149.179746,160.97358 152.623754,160.53764 L156.749875,156.60526 C159.749201,154.654619 144.93218,146.48665 136.136339,145.685127 C109.512554,148.751384 62.9883173,150.830638 62.9883173,150.830638 L68.7933484,139.019948 C68.7933484,139.019948 73.5019168,132.733427 65.4363063,128.993079 Z" id="Path-60" stroke="#FFFFFF" stroke-width="3" fill="#B8B8B8"></path>
            <ellipse id="Oval-4" fill="#000000" cx="92.1333354" cy="102.4212" rx="4.98622116" ry="4.98509534"></ellipse>
            <ellipse id="Oval-4-Copy" fill="#000000" cx="119.749329" cy="102.4212" rx="4.98622116" ry="4.98509534"></ellipse>
            <g id="Group" transform="translate(115.259259, 137.679612)">
                <polygon id="Path-61" stroke="#FFFFFF" stroke-width="2" fill="#5D5D5D" points="5.55230035 7.29332904 5.74437572 21.9009785 14.5168547 21.451608 12.996582 6.34327594"></polygon>
                <ellipse id="Oval-6" fill="#7F7F7F" cx="9.55555556" cy="6.36893204" rx="9.55555556" ry="3.98058252"></ellipse>
                <path d="M9.55555556,10.3495146 C14.8329432,10.3495146 19.1111111,8.56734706 19.1111111,6.36893204 L19.1111111,3.73397045 L0,3.73397045 L0,6.36893204 C0,8.56734706 4.27816795,10.3495146 9.55555556,10.3495146 Z" id="Oval-6-Copy" fill="#7F7F7F"></path>
                <path d="M1.0083266,4.36953598 C1.88521517,5.96951587 5.3790252,7.16504854 9.55555556,7.16504854 C14.3931609,7.16504854 18.3148148,5.56109779 18.3148148,3.58252427 C18.3148148,1.60395075 14.3931609,0 9.55555556,0 C4.71795025,0 0.796296296,1.60395075 0.796296296,3.58252427 C0.796296296,3.85290296 0.8695298,4.1162859 1.0083266,4.36953598 Z" id="Oval-6-Copy-2" stroke="#7F7F7F" stroke-width="2" fill="#FFFFFF"></path>
            </g>
        </g>
    </g>
</svg>